<svg xmlns="http://www.w3.org/2000/svg" viewBox="0 0 347 260" role="img" aria-labelledby="title desc">
  <title id="title">Komet Quest</title>
  <desc id="desc">Komet Quest logo with a small robot in a neon digital grid environment.</desc>
  <defs>
    <linearGradient id="bg" x1="0" y1="0" x2="1" y2="1">
      <stop offset="0" stop-color="#07213a" />
      <stop offset="55%" stop-color="#093347" />
      <stop offset="100%" stop-color="#0a151f" />
    </linearGradient>
    <linearGradient id="robot" x1="155" y1="45" x2="290" y2="225" gradientUnits="userSpaceOnUse">
      <stop offset="0" stop-color="#c7fbff" />
      <stop offset="42%" stop-color="#78aeb7" />
      <stop offset="100%" stop-color="#42535d" />
    </linearGradient>
    <linearGradient id="robotSide" x1="230" y1="60" x2="304" y2="160" gradientUnits="userSpaceOnUse">
      <stop offset="0" stop-color="#83dce3" />
      <stop offset="100%" stop-color="#32404a" />
    </linearGradient>
    <filter id="cyanGlow" x="-30%" y="-30%" width="160%" height="160%">
      <feGaussianBlur stdDeviation="2.5" result="blur" />
      <feMerge>
        <feMergeNode in="blur" />
        <feMergeNode in="SourceGraphic" />
      </feMerge>
    </filter>
    <filter id="softShadow" x="-25%" y="-25%" width="150%" height="150%">
      <feDropShadow dx="3" dy="8" stdDeviation="4" flood-color="#000" flood-opacity="0.55" />
    </filter>
  </defs>
  <rect width="347" height="260" fill="url(#bg)" />
  <g opacity="0.32" stroke="#22d9e6" stroke-width="1">
    <path d="M0 217 H347 M0 237 H347 M14 260 L126 172 M60 260 L152 172 M113 260 L181 172 M177 260 L219 172 M251 260 L257 172 M321 260 L296 172" />
    <path d="M2 201 L347 201 M36 187 L333 187 M75 176 L309 176" opacity="0.55" />
    <path d="M227 17 h18 v13 h-18z M255 28 h26 v17 h-26z M32 95 h31 v23 h-31z M285 50 h26 v26 h-26z" fill="none" />
    <path d="M303 69 l12 -12 M294 57 l21 21 M238 23 h14 M41 106 h15" />
  </g>
  <g opacity="0.45" fill="#20e8f5">
    <circle cx="203" cy="28" r="3" />
    <circle cx="259" cy="57" r="3" />
    <circle cx="309" cy="101" r="2.5" />
    <circle cx="146" cy="156" r="2" />
    <circle cx="313" cy="183" r="2" />
  </g>
  <g stroke="#1ac6d3" stroke-width="1" opacity="0.25">
    <path d="M203 28 L259 57 L309 101 L313 183" fill="none" />
    <path d="M146 156 L203 28" fill="none" />
  </g>
  <g filter="url(#cyanGlow)" font-family="Arial Black, Impact, sans-serif" font-weight="900" fill="#e7ffff" stroke="#00f0ff" stroke-width="2">
    <text x="23" y="60" font-size="43">Komet</text>
    <text x="28" y="101" font-size="42">Quest</text>
  </g>
  <g filter="url(#softShadow)" stroke="#071216" stroke-width="3" stroke-linejoin="round">
    <path d="M209 105 C199 109 190 121 185 139 C178 163 183 195 204 214 C224 232 257 228 277 209 C299 188 302 150 290 126 C278 101 237 94 209 105 Z" fill="url(#robot)" />
    <path d="M200 77 C211 55 253 49 281 65 C302 77 304 108 287 127 C265 118 229 115 201 124 C186 111 188 88 200 77 Z" fill="url(#robot)" />
    <path d="M227 57 L267 58 L255 76 L211 80 Z" fill="#7bdde4" />
    <path d="M287 73 C308 84 313 116 294 139 C288 128 281 119 270 112 C281 99 287 86 287 73 Z" fill="url(#robotSide)" />
    <path d="M211 96 h62 v36 h-62z" fill="#314b55" />
    <rect x="225" y="104" width="17" height="18" rx="3" fill="#75fbff" filter="url(#cyanGlow)" />
    <rect x="257" y="104" width="17" height="18" rx="3" fill="#75fbff" filter="url(#cyanGlow)" />
    <path d="M187 138 C170 130 157 133 151 146 C144 160 154 174 172 179" fill="none" stroke="#bceff2" stroke-width="11" stroke-linecap="round" />
    <path d="M161 126 l-5 -13 M171 129 l3 -14 M148 137 l-11 -6" fill="none" stroke="#bceff2" stroke-width="6" stroke-linecap="round" />
    <path d="M282 151 C297 159 305 173 302 196" fill="none" stroke="#5f7b83" stroke-width="13" stroke-linecap="round" />
    <path d="M215 215 l-5 32 M252 219 l8 30" fill="none" stroke="#46545c" stroke-width="14" stroke-linecap="round" />
    <path d="M220 142 C229 154 250 154 264 142" fill="none" stroke="#24343b" stroke-width="4" stroke-linecap="round" />
  </g>
</svg>
