<svg xmlns="http://www.w3.org/2000/svg" viewBox="0 0 335 335" role="img" aria-labelledby="title desc">
  <title id="title">Tetris Flip</title>
  <desc id="desc">Turquoise 3D Tetris Flip logo on a black background.</desc>
  <defs>
    <linearGradient id="top" x1="80" y1="30" x2="255" y2="115" gradientUnits="userSpaceOnUse">
      <stop offset="0" stop-color="#72f7ff" />
      <stop offset="1" stop-color="#53dce6" />
    </linearGradient>
    <linearGradient id="front" x1="105" y1="105" x2="222" y2="251" gradientUnits="userSpaceOnUse">
      <stop offset="0" stop-color="#00d5df" />
      <stop offset="1" stop-color="#00aebd" />
    </linearGradient>
    <linearGradient id="side" x1="211" y1="96" x2="269" y2="173" gradientUnits="userSpaceOnUse">
      <stop offset="0" stop-color="#12d6e0" />
      <stop offset="1" stop-color="#0395a8" />
    </linearGradient>
    <filter id="logoShadow" x="-20%" y="-20%" width="140%" height="140%">
      <feDropShadow dx="0" dy="7" stdDeviation="2.5" flood-color="#020202" flood-opacity="0.95" />
    </filter>
  </defs>
  <rect width="335" height="335" fill="#000" />
  <g filter="url(#logoShadow)" stroke="#050505" stroke-width="5" stroke-linejoin="round">
    <path d="M84 72 L183 32 L266 71 L173 114 Z" fill="url(#top)" />
    <path d="M84 72 L173 114 L173 146 L138 129 L138 229 L111 220 L111 119 L84 108 Z" fill="url(#front)" />
    <path d="M173 114 L266 71 L266 107 L221 127 L221 165 L254 151 L254 182 L201 205 L201 246 L173 252 Z" fill="url(#side)" />
    <path d="M173 114 L201 126 L201 205 L254 182 L254 214 L173 252 Z" fill="#00bfd0" />
    <path d="M84 72 L84 108 L173 146 L173 114 Z" fill="#0ec3cf" />
  </g>
  <g opacity="0.28" fill="#151515">
    <text x="168" y="288" text-anchor="middle" font-family="Arial Black, Impact, sans-serif" font-size="37" font-weight="900">Tetris Flip</text>
  </g>
</svg>
